<?xml version="1.0" encoding="utf-8"?>
<!-- Generator: Adobe Illustrator 24.3.0, SVG Export Plug-In . SVG Version: 6.00 Build 0)  -->
<svg version="1.1" id="svg2" xmlns:inkscape="http://www.inkscape.org/namespaces/inkscape"
	 xmlns="http://www.w3.org/2000/svg" xmlns:xlink="http://www.w3.org/1999/xlink" x="0px" y="0px" viewBox="0 0 800 800"
	 style="enable-background:new 0 0 800 800;" xml:space="preserve">
<style type="text/css">
	.st0{fill:#FFFFFF;}
</style>
<rect class="st0" width="800" height="800"/>
<path d="M248.4,118.6c-3.2-7.1-10.3-12-18.6-12c-11.2,0-20.4,9.1-20.4,20.4l0,0c0,11.2,9.1,20.4,20.4,20.4l0,0
	c7.9,0,14.7-4.5,18.1-11.1h36.1v-17.7L248.4,118.6"/>
<path d="M239.3,176.7l-32,32c-2.7-1.5-5.7-2.2-8.8-2.2c-10.4,0-18.8,8.4-18.8,18.8c0,10.4,8.4,18.8,18.8,18.8
	c10.4,0,18.8-8.4,18.8-18.8c0-1.5-0.1-2.8-0.5-4.2l24.3-28.1h42.1v-16.4H239.3"/>
<path d="M393.9,71.6c-7.6-2.5-13-9.6-13-17.9c0-10.4,8.4-18.8,18.8-18.8c10.4,0,18.8,8.4,18.8,18.8c0,8.3-5.3,15.4-13,17.9v243.2
	c6.8,2.4,11.4,8.8,11.4,16.2c0,9.5-7.7,17.2-17.2,17.2c-9.5,0-17.2-7.7-17.2-17.2c0-7.4,4.6-13.8,11.4-16.2V71.6"/>
<path d="M295.7,111.4v249.8c6.6,17.4,19.8,31.6,36.9,39.1v28.2c9.7,23,22.5,44.6,38.3,64h28.8h28.8c15.7-19.5,28.5-41,38.3-64v-28.2
	c17.1-7.5,30.5-21.5,36.9-39.1V111.4h-41.1V70.7c6.3-2.9,10.8-9.3,10.8-16.8c0-10.2-8.3-18.5-18.5-18.5s-18.5,8.3-18.5,18.5
	c0,8,5.1,14.9,12.5,17.4v40.1h-31.9c-5.2,7.9-6.6,17.7-3.8,26.7h35.4v128.4c-7.6,2.4-13.1,9.5-13.1,17.9c0,10.4,8.4,18.8,18.8,18.8
	s18.8-8.4,18.8-18.8c0-7.5-4.4-14-10.9-17V138.2h15.6v219.2c-3.3,8.2-9.8,14.6-18,17.9h-60.1h-60.1c-8.2-3.3-14.7-9.7-18-17.9V138
	H334v201.9c3.1,9.5,9.1,17.8,17.1,23.7h29V97.5l-34-22.4v-6c6.1-2.9,10.3-9.2,10.3-16.3c0-10-8-18-18-18l0,0c-10,0-18,8-18,18
	c0,7.7,4.9,14.3,11.5,16.9v11.2l34.2,23.5v197.3h-4.6V111.5h-65.8"/>
<path d="M617.2,118.7c2.9-5.4,8.7-8.9,15.2-8.9c9.5,0,17.2,7.7,17.2,17.2c0,9.5-7.7,17.2-17.2,17.2c-7.1,0-13.2-4.3-15.8-10.4h-98.8
	v-15.1H617.2"/>
<path d="M517.7,154.8h90.8v22h22.6c2.9-5.4,8.6-8.9,15.2-8.9c9.5,0,17.2,7.7,17.2,17.2l0,0c0,9.5-7.7,17.2-17.2,17.2l0,0
	c-6.9,0-12.8-4-15.5-9.7h-113v-14H593v-11h-75.2v-12.7"/>
<path d="M272.9,199c4.5-1.7,9.8,1.8,10.4,6.6c2.6,24,0.5,57.1-4.8,80.6c-7.6,34.4-18.3,71.3-0.6,101.9c19,32.7,46.1,67.6,70.2,86.7
	c2.5,2.2,4.1,6.5,1.4,8.2c-11.7,12.6-27.1,3.5-36.8-6c-3.4,5.1-9.2,7.5-14,11.2c-5.2,4-11.5,7.6-17,3.7
	c-11.7-8.3-26.9-20.5-35.5-31.8c-6.2-8.2-2.5-19.5,3.2-28.1c2.7-4.1,3.5-9.3,2.8-14.2c-2-13.8-6-31.6-19.1-36.5
	c-10.8-4-26.7,0.3-31.4-10.2c-6.5-14.6-6.5-38.6,0-53.2c4.6-10.5,20.4-6.6,31.4-10.2c22.8-7.7,16.2-41,7.1-63.3
	c-4.4-10.8,4.6-21.1,13.4-28.6C260,210.2,264.7,202.1,272.9,199"/>
<path d="M526.4,199c-4.5-1.7-9.8,1.8-10.4,6.6c-2.6,24-0.5,57.1,4.8,80.6c7.6,34.4,18.3,71.3,0.6,101.9
	c-19,32.7-46.1,67.6-70.2,86.7c-2.5,2.2-4.1,6.5-1.4,8.2c11.7,12.6,27.1,3.5,36.8-6c3.4,5.1,9.2,7.5,14,11.2c5.2,4,11.5,7.6,17,3.7
	c11.7-8.3,26.9-20.5,35.5-31.8c6.2-8.2,2.5-19.5-3.2-28.1c-2.7-4.1-3.5-9.3-2.8-14.2c2-13.8,6-31.6,19.1-36.5
	c10.8-4,26.7,0.3,31.4-10.2c6.5-14.6,6.5-38.6,0-53.2c-4.6-10.5-20.4-6.6-31.4-10.2c-22.8-7.7-16.2-41-7.1-63.3
	c4.4-10.8-4.6-21.1-13.4-28.6C539.3,210.2,534.6,202.1,526.4,199"/>
<path d="M399.6,503.6h-28.4v28.2h28.4h28.4v-28.2H399.6"/>
<path class="st0" d="M377.7,460.9c-3.8-4-6.3-9.2-7.1-14.6h29.1h29.1c-0.8,5.5-3.3,10.6-7.1,14.6h-22H377.7"/>
<path class="st0" d="M399.6,402.6h-39.2v23.4h39.2h39.2v-23.4H399.6"/>
<path class="st0" d="M198.5,221.5c-2.2,0-4,1.7-4,4c0,2.2,1.7,4,4,4c2.3,0,4-1.7,4-4C202.3,223.2,200.6,221.5,198.5,221.5"/>
<path class="st0" d="M229.8,122.2c-2.6,0-4.6,2.2-4.6,4.6c0,2.5,2.2,4.6,4.6,4.6s4.6-2.2,4.6-4.6S232.4,122.2,229.8,122.2"/>
<path class="st0" d="M338.4,48.1c-2.6,0-4.6,2.2-4.6,4.6c0,2.6,2.2,4.6,4.6,4.6c2.6,0,4.6-2.2,4.6-4.6C343,50.1,341,48.1,338.4,48.1
	"/>
<path class="st0" d="M399.6,327.9c-1.7,0-3.2,1.4-3.2,3.2c0,1.7,1.4,3.2,3.2,3.2c1.8,0,3.2-1.4,3.2-3.2S401.3,327.9,399.6,327.9"/>
<path class="st0" d="M399.6,50.3c-1.9,0-3.5,1.6-3.5,3.5l0,0c0,1.9,1.6,3.5,3.5,3.5s3.5-1.6,3.5-3.5
	C403.1,51.8,401.6,50.3,399.6,50.3L399.6,50.3"/>
<path class="st0" d="M454.9,49.6c-2.4,0-4.3,1.9-4.3,4.3c0,2.4,1.9,4.3,4.3,4.3s4.3-1.9,4.3-4.3C459.2,51.5,457.3,49.6,454.9,49.6"
	/>
<path class="st0" d="M454.2,279.6c-2.6,0-4.6,2.2-4.6,4.6c0,2.6,2.2,4.6,4.6,4.6c2.6,0,4.6-2.2,4.6-4.6
	C459,281.7,456.8,279.6,454.2,279.6"/>
<path d="M399.6,540.9h-17.2l17.2,40.3l17.2-40.3H399.6"/>
<path class="st0" d="M646.3,180.3c-2.6,0-4.6,2.2-4.6,4.6c0,2.6,2.2,4.6,4.6,4.6s4.6-2.2,4.6-4.6
	C650.9,182.5,648.9,180.3,646.3,180.3"/>
<path class="st0" d="M632.4,121.5c-3.1,0-5.4,2.5-5.4,5.4s2.5,5.4,5.4,5.4c3.1,0,5.4-2.5,5.4-5.4S635.4,121.5,632.4,121.5"/>
<path d="M122,724.9H82.1l-5.5,19H40.7l42.8-115.2h38.4l42.8,115.2h-36.8L122,724.9"/>
<path d="M175.7,628.7h35.2v86.8h54.9v28.4h-90L175.7,628.7"/>
<path d="M283.2,628.7h35.2v115.2h-35.2V628.7"/>
<path d="M472.4,696.7l30.8,9.4c-2.1,8.7-5.3,16.1-9.8,21.9c-4.5,5.9-10,10.3-16.6,13.3s-15,4.5-25.2,4.5c-12.4,0-22.5-1.8-30.3-5.5
	c-7.8-3.6-14.6-10-20.3-19.2c-5.7-9.2-8.5-20.9-8.5-35.2c0-19.1,5-33.7,15-43.9s24.2-15.4,42.5-15.4c14.3,0,25.6,2.9,33.8,8.8
	s14.3,14.9,18.3,27l-31.1,7c-1.1-3.5-2.2-6.1-3.4-7.7c-2-2.7-4.4-4.8-7.2-6.3c-2.8-1.5-6-2.2-9.5-2.2c-8,0-14.1,3.2-18.3,9.7
	c-3.2,4.8-4.8,12.4-4.8,22.7c0,12.8,1.9,21.5,5.7,26.3c3.8,4.7,9.2,7.1,16.1,7.1c6.7,0,11.8-1.9,15.3-5.7
	C468.4,709.6,470.9,704,472.4,696.7"/>
<path d="M520.6,628.7h32.8l42.8,63.7v-63.7h33.1v115.2h-33.1l-42.6-63.3v63.3h-33.1L520.6,628.7"/>
<path d="M728.5,696.7l30.8,9.4c-2.1,8.7-5.3,16.1-9.8,21.9c-4.5,5.9-10,10.3-16.6,13.3s-15,4.5-25.2,4.5c-12.4,0-22.5-1.8-30.3-5.5
	c-7.8-3.6-14.6-10-20.3-19.2s-8.5-20.9-8.5-35.2c0-19.1,5-33.7,15-43.9s24.2-15.4,42.5-15.4c14.3,0,25.6,2.9,33.8,8.8
	s14.3,14.9,18.3,27l-31.1,7c-1.1-3.5-2.2-6.1-3.4-7.7c-2-2.7-4.4-4.8-7.2-6.3s-6-2.2-9.5-2.2c-8,0-14.1,3.2-18.3,9.7
	c-3.2,4.8-4.8,12.4-4.8,22.7c0,12.8,1.9,21.5,5.7,26.3c3.8,4.7,9.2,7.1,16.1,7.1c6.7,0,11.8-1.9,15.3-5.7
	C724.5,709.6,727,704,728.5,696.7"/>
<path class="st0" d="M114.7,699.9l-12.6-41.4l-12.4,41.4H114.7"/>
</svg>
